<?xml version="1.0" standalone="no"?>
<!DOCTYPE svg PUBLIC "-//W3C//DTD SVG 1.1//EN" "http://www.w3.org/Graphics/SVG/1.1/DTD/svg11.dtd">
<svg viewBox="0,0,1025,1025" height="513" width="513"><defs><style>.l1 {
            	stroke: black;
              fill: none;
              stroke-linecap: round; /* butt; square; */
              /* stroke-opacity: 0.1; */
            }</style></defs><g transform="translate(0.5,0.5)"><g transform="translate(1024,512)" class="l1"><path d="M -941.0940919037199,-179.25601750547042 A 487.6190476190476 487.6190476190476 0 0 0 -941.0940919037199,179.25601750547042"></path><path d="M -509.68325791855204,-463.34841628959276 A 465.45454545454544 465.45454545454544 0 0 0 -509.68325791855204,463.34841628959276"></path><path d="M -864.2935779816514,-150.3119266055046 A 445.21739130434787 445.21739130434787 0 0 0 -864.2935779816514,150.3119266055046"></path><path d="M -225.8823529411765,-376.47058823529414 A 426.6666666666667 426.6666666666667 0 1 0 -225.8823529411765,376.47058823529414"></path><path d="M -494.86988847583643,-380.6691449814126 A 393.8461538461538 393.8461538461538 0 0 0 -494.86988847583643,380.6691449814126"></path><path d="M -240.53691275167785,-343.6241610738255 A 365.7142857142857 365.7142857142857 0 1 0 -240.53691275167785,343.6241610738255"></path><path d="M -472.6153846153846,-315.0769230769231 A 341.3333333333333 341.3333333333333 0 0 0 -472.6153846153846,315.0769230769231"></path><path d="M -249.75609756097566,-312.1951219512195 A 320 320 0 1 0 -249.75609756097566,312.1951219512195"></path><path d="M -447.50642673521855,-263.2390745501285 A 301.1764705882353 301.1764705882353 0 0 0 -447.50642673521855,263.2390745501285"></path><path d="M -254.58563535911603,-282.8729281767956 A 284.44444444444446 284.44444444444446 0 1 0 -254.58563535911603,282.8729281767956"></path><path d="M -422.03904555314534,-222.12581344902387 A 269.4736842105263 269.4736842105263 0 0 0 -422.03904555314534,222.12581344902387"></path><path d="M -70.62068965517241,-176.55172413793105 A 256 256 0 1 0 -70.62068965517241,176.55172413793105"></path><path d="M -254.84162895927602,-231.67420814479638 A 232.72727272727272 232.72727272727272 0 0 0 -254.84162895927602,231.67420814479638"></path><path d="M -251.80327868852459,-209.8360655737705 A 213.33333333333334 213.33333333333334 0 0 0 -251.80327868852459,209.8360655737705"></path><path d="M -247.43494423791822,-190.3345724907063 A 196.9230769230769 196.9230769230769 0 0 0 -247.43494423791822,190.3345724907063"></path><path d="M -242.16216216216213,-172.97297297297297 A 182.85714285714286 182.85714285714286 0 0 0 -242.16216216216213,172.97297297297297"></path><path d="M -90.35294117647062,-150.58823529411765 A 170.66666666666666 170.66666666666666 0 1 0 -90.35294117647062,150.58823529411765"></path><path d="M -99.90243902439026,-124.8780487804878 A 128 128 0 1 0 -99.90243902439026,124.8780487804878"></path><path d="M -102.39999999999999,-102.4 A 102.4 102.4 0 0 0 -102.39999999999999,102.4"></path><path d="M -45.17647058823531,-75.29411764705883 A 85.33333333333333 85.33333333333333 0 1 0 -45.17647058823531,75.29411764705883"></path><path d="M -21.619961612284076,-39.309021113243766 A 46.54545454545455 46.54545454545455 0 1 0 -21.619961612284076,39.309021113243766"></path><path d="M -25.569560047562426,-24.35196195005945 A 24.38095238095238 24.38095238095238 0 0 0 -25.569560047562426,24.35196195005945"></path><circle cx="-512" r="512"></circle></g><g transform="translate(1024,512)" class="l1"><path d="M -851.8544194107453,-35.4939341421144 A 10240 10240 0 0 1 -1021.4463840399003,-51.07231920199503"></path><path d="M -851.8544194107453,35.4939341421144 A 10240 10240 0 0 0 -1021.4463840399003,51.07231920199503"></path><path d="M -510.72319201995015,-25.536159600997514 A 5120 5120 0 0 1 -1013.8613861386139,-101.38613861386128"></path><path d="M -510.72319201995015,25.536159600997514 A 5120 5120 0 0 0 -1013.8613861386139,101.38613861386128"></path><path d="M -840.2051282051283,-105.02564102564111 A 3413.3333333333335 3413.3333333333335 0 0 1 -1001.4669926650367,-150.22004889975545"></path><path d="M -840.2051282051283,105.02564102564111 A 3413.3333333333335 3413.3333333333335 0 0 0 -1001.4669926650367,150.22004889975545"></path><path d="M -339.8230088495575,-22.654867256637168 A 2560 2560 0 0 1 -984.6153846153846,-196.9230769230769"></path><path d="M -339.8230088495575,22.654867256637168 A 2560 2560 0 0 0 -984.6153846153846,196.9230769230769"></path><path d="M -500.73349633251837,-75.11002444987773 A 1706.6666666666667 1706.6666666666667 0 0 1 -939.4495412844037,-281.83486238532106"></path><path d="M -500.73349633251837,75.11002444987773 A 1706.6666666666667 1706.6666666666667 0 0 0 -939.4495412844037,281.83486238532106"></path><path d="M -335.3711790393013,-44.716157205240165 A 1280 1280 0 0 1 -882.7586206896551,-353.1034482758621"></path><path d="M -335.3711790393013,44.716157205240165 A 1280 1280 0 0 0 -882.7586206896551,353.1034482758621"></path><path d="M -481.88235294117646,-120.47058823529407 A 1024 1024 0 0 1 -819.1999999999999,-409.6000000000001"></path><path d="M -481.88235294117646,120.47058823529407 A 1024 1024 0 0 0 -819.1999999999999,409.6000000000001"></path><path d="M -328.2051282051282,-65.64102564102564 A 853.3333333333334 853.3333333333334 0 0 1 -752.9411764705883,-451.7647058823529"></path><path d="M -328.2051282051282,65.64102564102564 A 853.3333333333334 853.3333333333334 0 0 0 -752.9411764705883,451.7647058823529"></path><path d="M -456.1247216035635,-159.6436525612472 A 731.4285714285714 731.4285714285714 0 0 1 -687.248322147651,-481.0738255033557"></path><path d="M -456.1247216035635,159.6436525612472 A 731.4285714285714 731.4285714285714 0 0 0 -687.248322147651,481.0738255033557"></path><path d="M -318.6721991701245,-84.97925311203315 A 640 640 0 0 1 -624.390243902439,-499.5121951219512"></path><path d="M -318.6721991701245,84.97925311203315 A 640 640 0 0 0 -624.390243902439,499.5121951219512"></path><path d="M -425.77962577962575,-191.6008316008316 A 568.8888888888889 568.8888888888889 0 0 1 -565.7458563535911,-509.17127071823205"></path><path d="M -425.77962577962575,191.6008316008316 A 568.8888888888889 568.8888888888889 0 0 0 -565.7458563535911,509.17127071823205"></path><path d="M -92.32786885245902,-8.393442622950827 A 512 512 0 0 1 -511.99999999999994,-512"></path><path d="M -92.32786885245902,8.393442622950827 A 512 512 0 0 0 -511.99999999999994,512"></path><path d="M -294.25287356321843,-117.70114942528733 A 426.6666666666667 426.6666666666667 0 0 1 -419.67213114754105,-503.60655737704917"></path><path d="M -294.25287356321843,117.70114942528733 A 426.6666666666667 426.6666666666667 0 0 0 -419.67213114754105,503.60655737704917"></path><path d="M -280.2919708029197,-130.80291970802915 A 365.7142857142857 365.7142857142857 0 0 1 -345.94594594594594,-484.3243243243243"></path><path d="M -280.2919708029197,130.80291970802915 A 365.7142857142857 365.7142857142857 0 0 0 -345.94594594594594,484.3243243243243"></path><path d="M -265.7439446366782,-141.73010380622836 A 320 320 0 0 1 -287.64044943820227,-460.2247191011236"></path><path d="M -265.7439446366782,141.73010380622836 A 320 320 0 0 0 -287.64044943820227,460.2247191011236"></path><path d="M -250.98039215686276,-150.58823529411762 A 284.44444444444446 284.44444444444446 0 0 1 -241.50943396226415,-434.7169811320755"></path><path d="M -250.98039215686276,150.58823529411762 A 284.44444444444446 284.44444444444446 0 0 0 -241.50943396226415,434.7169811320755"></path><path d="M -153.6,-51.199999999999996 A 256 256 0 0 1 -204.79999999999995,-409.59999999999997"></path><path d="M -153.6,51.199999999999996 A 256 256 0 0 0 -204.79999999999995,409.59999999999997"></path><path d="M -136.5333333333333,-68.26666666666668 A 170.66666666666666 170.66666666666666 0 0 1 -102.39999999999998,-307.2"></path><path d="M -136.5333333333333,68.26666666666668 A 170.66666666666666 170.66666666666666 0 0 0 -102.39999999999998,307.2"></path><path d="M -118.15384615384615,-78.76923076923077 A 128 128 0 0 1 -60.23529411764707,-240.94117647058823"></path><path d="M -118.15384615384615,78.76923076923077 A 128 128 0 0 0 -60.23529411764707,240.94117647058823"></path><path d="M -77.15068493150685,-35.06849315068494 A 102.4 102.4 0 0 1 -39.384615384615415,-196.92307692307693"></path><path d="M -77.15068493150685,35.06849315068494 A 102.4 102.4 0 0 0 -39.384615384615415,196.92307692307693"></path><path d="M -39.74861367837338,-18.927911275415898 A 51.2 51.2 0 0 1 -10.138613861386148,-101.38613861386139"></path><path d="M -39.74861367837338,18.927911275415898 A 51.2 51.2 0 0 0 -10.138613861386148,101.38613861386139"></path><path d="M -25.569560047562426,-24.35196195005945 A 25.6 25.6 0 0 1 -2.553615960099762,-51.072319201995015"></path><path d="M -25.569560047562426,24.35196195005945 A 25.6 25.6 0 0 0 -2.553615960099762,51.072319201995015"></path><line x1="0" y1="0" x2="-1024" y2="0" class="l1"></line></g></g></svg>
